<svg width="17" height="17" viewBox="0 0 17 17" fill="none" xmlns="http://www.w3.org/2000/svg">
<path fill-rule="evenodd" clip-rule="evenodd" d="M8.49664 14.5225C8.31094 14.5234 8.12494 14.4473 7.99135 14.2944L3.33134 8.96111C3.08908 8.68385 3.11745 8.26269 3.39471 8.02043C3.67198 7.77817 4.09313 7.80655 4.33539 8.08381L7.83336 12.0872L7.83336 3.18913C7.83336 2.82094 8.13184 2.52246 8.50003 2.52246C8.86822 2.52246 9.1667 2.82094 9.1667 3.18913V12.0758L12.6653 8.0831C12.9079 7.80618 13.3291 7.7784 13.6061 8.02105C13.883 8.2637 13.9108 8.6849 13.6681 8.96182L9.05174 14.2302C8.93179 14.4066 8.72944 14.5225 8.50003 14.5225C8.4989 14.5225 8.49777 14.5225 8.49664 14.5225Z" fill="#FC5A5A"/>
</svg>
